# xmcd
#
# Track frame offsets:
#	150
#	12850
#	28700
#	42827
#	54999
#	66117
#	75972
#	90356
#	103646
#	120357
#	133100
#	150509
#	164552
#	176018
#	188438
#	198212
#	207792
#	226061
#	241167
#	256876
#	269360
#
# Disc length: 3700 seconds
#
# Revision: 0
# Processed by: cddbd v1.5.2PL0 Copyright (c) Steve Scherf et al.
# Submitted via: audiograbber 1.83.01
#
DISCID=fb0e7215
DTITLE=Stardust  - Stardust 063
DYEAR=2006
DGENRE=Country
TTITLE0=Plain And Simple Country  - Troy Cook Jr
TTITLE1=The Boots I Came To Town In  - Becky Hobbs
TTITLE2=I´m Gonna Let You Down  - Gene Melendrez
TTITLE3=In The Valley Of The Sun  - Tommy The Uk Cowboy
TTITLE4=Any Palce In Texas - Beau Renfro
TTITLE5=Life Of The Party  - Ernie Ashworth
TTITLE6=In The Heat Of The Night  - Michelle Rae
TTITLE7=I Just Don´t Understand  - Hermann Lammers Meyer
TTITLE8=Those Envelopes - Susan Marshall
TTITLE9=Just Right  - Woodie Procell
TTITLE10=If Tomorrow Were Today  - Jerri Arnold
TTITLE11=Motel Time  - Jack Blanchard and Misty Morgan
TTITLE12=Jack, Jim And Jose  - Julie Taylor
TTITLE13=You Got It Now  - Mayf Nutter
TTITLE14=You Walk By - Buster Doss
TTITLE15=Spade Cooley Swing  - Stardust Studio Band
TTITLE16=Buster Marvin Doss  - Brant Miller
TTITLE17=In My Eyes  - Michael Apidgian
TTITLE18=Fast Track Country Star  - Ron Thompson
TTITLE19=Wastin Th´day  - Rooster Quantrell
TTITLE20=Tribute To A Legend  - Loraine Washburn
EXTD=
EXTT0=
EXTT1=
EXTT2=
EXTT3=
EXTT4=
EXTT5=
EXTT6=
EXTT7=
EXTT8=
EXTT9=
EXTT10=
EXTT11=
EXTT12=
EXTT13=
EXTT14=
EXTT15=
EXTT16=
EXTT17=
EXTT18=
EXTT19=
EXTT20=
PLAYORDER=
